<svg id="Capa_2" data-name="Capa 2" xmlns="http://www.w3.org/2000/svg" viewBox="0 0 400.04 400.89"><defs><style>.cls-1{fill:#fff;}</style></defs><title>lupa blanca</title><g id="svgg"><path id="path0" class="cls-1" d="M139.81,5.43c-0.79.09-3.43,0.36-5.87,0.59C71.51,12.06,18.36,61.34,7.17,123.56-2,174.45,15,223.33,54.48,259.63c40,36.83,107.7,44.24,162,17.75l7.52-3.67,62.89,62.82c68.87,68.8,66.92,67,74.14,68.87,8.77,2.29,16.24-1.3,28.78-13.86,14.38-14.4,17.73-23.16,12.87-33.56-2.27-4.85-3.62-6.26-67-69.74L272.95,225.4l2-3.47c19.26-32.65,24.33-75.39,13.38-112.84A145,145,0,0,0,176.13,7.6c-9.84-1.81-29.28-3-36.33-2.17M162.66,55c76.1,10.77,108,104,54.72,159.66C172.5,261.54,93.95,250,64.58,192.22,29.66,123.54,86.36,44.22,162.66,55" transform="translate(-4.75 -5.17)"/></g></svg>