<svg id="svg" version="1.1" xmlns="http://www.w3.org/2000/svg" xmlns:xlink="http://www.w3.org/1999/xlink" width="400" height="400" viewBox="0, 0, 400,400"><g id="svgg"><path id="path0" d="M203.273 117.947 C 214.169 129.182,215.351 147.008,205.863 157.020 C 196.807 166.575,195.654 167.371,193.400 165.617 C 192.924 165.247,187.398 163.200,186.075 162.904 C 184.710 162.599,182.800 164.553,182.800 166.254 C 182.800 167.598,184.750 169.608,186.038 169.593 C 186.347 169.590,185.880 169.179,185.000 168.681 C 182.930 167.509,182.682 165.223,184.478 163.882 L 185.556 163.077 189.078 164.392 C 191.015 165.115,194.580 166.425,197.000 167.302 C 217.000 174.554,217.310 174.713,216.652 177.335 C 215.886 180.387,214.207 180.024,195.600 172.782 C 188.712 170.101,187.117 169.549,186.896 169.771 C 186.673 169.994,187.170 170.197,188.800 170.549 C 192.000 171.241,194.061 168.964,154.109 208.871 C 112.878 250.056,115.695 247.375,111.362 249.566 C 101.697 254.454,88.240 253.267,80.761 246.868 C 77.984 244.492,75.208 241.563,74.072 239.813 C 73.558 239.020,73.552 239.020,73.826 239.800 C 74.651 242.143,75.116 243.168,76.108 244.835 C 76.709 245.844,77.200 246.881,77.200 247.139 C 77.200 247.397,77.830 248.505,78.600 249.600 C 79.370 250.695,80.000 251.699,80.000 251.830 C 80.000 252.300,85.729 260.400,86.061 260.400 C 86.248 260.400,86.400 260.580,86.400 260.799 C 86.400 261.019,87.120 261.963,88.000 262.897 C 88.880 263.831,89.600 264.709,89.600 264.848 C 89.600 264.987,91.601 267.058,94.047 269.451 C 96.492 271.843,98.782 274.115,99.135 274.500 C 99.489 274.885,99.943 275.200,100.146 275.200 C 100.348 275.200,101.001 275.711,101.598 276.335 C 102.194 276.959,102.933 277.589,103.241 277.735 C 103.548 277.881,105.150 278.992,106.800 280.203 C 108.450 281.413,110.545 282.748,111.456 283.169 C 112.366 283.589,113.176 284.089,113.256 284.279 C 113.412 284.654,123.296 289.600,123.889 289.600 C 124.087 289.600,124.959 289.936,125.825 290.347 C 127.233 291.014,130.861 292.244,137.106 294.170 C 144.993 296.604,159.455 297.743,170.400 296.794 C 174.880 296.406,175.973 296.236,181.800 295.027 C 189.940 293.337,199.897 289.564,208.185 285.029 C 208.616 284.793,209.214 284.375,209.513 284.100 C 209.812 283.825,210.314 283.600,210.629 283.600 C 210.943 283.600,211.200 283.441,211.200 283.247 C 211.200 283.052,211.515 282.788,211.900 282.658 C 212.543 282.442,213.519 281.870,214.578 281.089 C 214.810 280.917,216.462 279.721,218.248 278.431 C 226.686 272.335,237.748 260.446,241.260 253.700 C 241.518 253.205,241.859 252.800,242.018 252.800 C 242.177 252.800,242.410 252.485,242.536 252.100 C 242.662 251.715,243.320 250.500,243.998 249.400 C 252.958 234.876,257.736 214.637,256.449 196.661 C 255.643 185.396,254.786 181.204,253.286 181.197 C 240.759 181.137,228.902 174.340,223.316 164.016 C 219.993 157.874,219.865 157.074,219.620 141.000 C 219.370 124.651,219.649 125.917,215.703 123.233 C 214.330 122.299,213.104 121.369,212.980 121.167 C 212.855 120.965,212.418 120.800,212.010 120.800 C 211.601 120.800,211.207 120.662,211.133 120.493 C 210.966 120.108,207.044 117.600,206.609 117.600 C 206.433 117.600,205.459 117.089,204.444 116.466 C 200.465 114.017,200.014 114.587,203.273 117.947 M135.936 162.997 C 135.743 163.190,130.780 165.047,127.200 166.266 C 126.210 166.603,125.220 167.067,125.000 167.298 C 124.724 167.588,124.847 167.625,125.400 167.418 C 125.840 167.253,126.740 166.942,127.400 166.726 C 128.060 166.510,128.960 166.176,129.400 165.983 C 136.807 162.737,138.546 162.773,139.660 166.200 C 139.898 166.931,139.924 166.920,139.960 166.069 C 140.031 164.424,136.900 162.034,135.936 162.997 M138.493 167.983 C 137.995 168.399,136.735 169.047,135.693 169.424 C 134.652 169.800,132.000 170.789,129.800 171.622 C 127.600 172.454,124.270 173.697,122.400 174.384 C 120.530 175.071,118.640 175.794,118.200 175.992 C 110.279 179.544,106.802 179.940,106.155 177.362 C 105.752 175.755,106.687 174.539,109.069 173.572 C 111.445 172.608,111.791 172.154,109.567 172.918 C 106.316 174.036,105.012 175.791,105.932 177.810 C 106.548 179.163,108.668 180.193,109.754 179.668 C 110.220 179.442,112.130 178.698,114.000 178.013 C 115.870 177.328,117.760 176.613,118.200 176.424 C 118.640 176.235,119.630 175.864,120.400 175.600 C 121.170 175.336,122.160 174.976,122.600 174.800 C 123.040 174.624,124.030 174.264,124.800 174.000 C 125.570 173.736,126.560 173.363,127.000 173.171 C 127.996 172.738,132.823 170.941,135.109 170.152 C 137.208 169.428,139.600 168.047,139.600 167.560 C 139.600 167.083,139.549 167.102,138.493 167.983 M122.800 167.880 C 122.470 168.000,121.660 168.326,121.000 168.605 C 119.268 169.337,116.475 170.384,114.400 171.077 C 113.410 171.408,112.420 171.851,112.200 172.063 C 111.939 172.314,112.008 172.380,112.400 172.253 C 113.881 171.772,124.217 167.881,124.367 167.748 C 124.609 167.533,123.503 167.626,122.800 167.880 M124.600 187.200 C 123.735 187.420,124.239 187.505,126.400 187.505 C 128.561 187.505,129.065 187.420,128.200 187.200 C 127.540 187.032,126.730 186.895,126.400 186.895 C 126.070 186.895,125.260 187.032,124.600 187.200 M201.200 188.606 C 207.622 191.852,209.246 201.108,204.257 206.029 C 197.492 212.701,186.442 209.104,185.357 199.877 C 184.313 190.989,193.285 184.606,201.200 188.606 M121.800 188.059 C 110.721 194.084,114.045 209.780,126.400 209.780 C 136.379 209.780,141.602 197.857,134.727 190.773 C 133.302 189.304,130.117 187.350,129.748 187.718 C 129.653 187.814,130.164 188.136,130.884 188.435 C 141.727 192.926,138.082 209.200,126.233 209.200 C 114.670 209.200,111.335 193.954,121.709 188.522 C 122.639 188.035,123.220 187.633,123.000 187.630 C 122.780 187.627,122.240 187.820,121.800 188.059 M169.672 234.980 C 171.407 235.714,171.198 239.108,169.367 239.942 C 167.582 240.756,153.875 240.555,152.846 239.700 C 151.432 238.526,151.320 236.644,152.588 235.376 L 153.666 234.298 161.333 234.497 C 165.550 234.606,169.302 234.823,169.672 234.980 " stroke="none" fill="#67c8ff" fill-rule="evenodd"></path><path id="path1" d="M0.000 200.000 L 0.000 400.000 200.000 400.000 L 400.000 400.000 400.000 200.000 L 400.000 0.000 200.000 0.000 L 0.000 0.000 0.000 200.000 M266.320 82.168 C 266.914 82.481,272.076 87.431,277.791 93.168 C 283.506 98.906,288.330 103.600,288.511 103.600 C 288.692 103.600,293.644 98.813,299.516 92.963 C 311.394 81.127,310.814 81.599,313.474 81.601 C 317.059 81.604,319.200 83.870,319.200 87.660 C 319.200 90.013,319.671 89.457,306.700 102.422 C 301.475 107.645,297.200 112.073,297.200 112.262 C 297.200 112.451,301.892 117.284,307.626 123.003 C 313.361 128.721,318.311 133.886,318.626 134.480 C 320.422 137.862,318.322 142.196,314.501 142.992 C 311.693 143.578,310.793 142.896,299.327 131.489 L 288.454 120.673 277.576 131.536 C 265.719 143.376,265.132 143.806,262.100 142.858 C 259.200 141.951,257.498 139.585,257.668 136.696 C 257.790 134.633,257.115 135.413,269.757 122.726 L 280.113 112.332 269.157 101.277 C 263.130 95.196,257.930 90.094,257.600 89.939 C 257.270 89.783,257.199 89.644,257.441 89.628 C 257.722 89.610,257.823 88.908,257.719 87.700 C 257.341 83.305,262.353 80.081,266.320 82.168 M177.800 91.198 C 178.900 91.438,180.835 91.738,182.100 91.865 C 183.365 91.992,184.400 92.255,184.400 92.448 C 184.400 92.642,184.777 92.800,185.238 92.800 C 186.843 92.800,196.860 95.857,202.600 98.098 C 207.916 100.174,216.682 104.561,219.081 106.345 L 219.962 107.000 220.185 128.200 C 220.474 155.567,220.542 156.299,223.374 162.420 C 226.473 169.119,233.987 176.080,240.200 178.008 C 241.080 178.281,242.004 178.665,242.253 178.863 C 243.614 179.937,249.249 180.433,259.884 180.416 L 270.769 180.398 271.155 181.899 C 272.710 187.946,273.138 209.172,271.863 217.000 C 270.174 227.366,267.190 238.386,264.372 244.655 C 258.912 256.807,252.142 267.752,246.001 274.359 L 244.737 275.718 253.669 284.809 C 260.775 292.041,262.763 293.854,263.400 293.680 C 268.153 292.381,274.831 293.518,278.286 296.216 C 281.630 298.827,341.558 359.078,342.922 361.200 C 351.892 375.158,336.859 391.304,321.762 383.926 C 317.773 381.976,255.856 319.787,254.024 315.891 C 252.787 313.259,252.408 307.480,253.239 303.910 C 253.431 303.087,236.180 285.600,235.175 285.600 C 234.826 285.600,234.103 286.073,233.570 286.652 C 231.397 289.008,219.295 297.600,218.149 297.600 C 217.847 297.600,217.600 297.758,217.600 297.951 C 217.600 298.281,209.750 302.305,204.756 304.535 C 181.315 315.006,146.094 315.971,123.400 306.764 C 122.960 306.586,121.070 305.819,119.200 305.061 C 97.620 296.307,75.893 277.754,65.748 259.417 C 65.499 258.968,64.832 257.790,64.265 256.800 C 60.528 250.271,56.633 241.153,54.610 234.200 C 52.695 227.617,52.439 226.618,51.997 224.000 C 51.756 222.570,51.392 220.410,51.190 219.200 C 49.823 211.030,49.702 192.770,50.969 185.600 C 51.299 183.730,51.742 181.210,51.954 180.000 C 53.763 169.645,58.156 157.876,64.719 145.800 C 73.150 130.288,88.554 114.935,105.533 105.122 C 109.593 102.775,116.944 99.200,117.709 99.200 C 118.001 99.200,118.425 99.015,118.650 98.790 C 119.773 97.667,130.639 94.271,138.600 92.555 C 147.887 90.552,171.156 89.747,177.800 91.198 " stroke="none" fill="#fbfbfb" fill-rule="evenodd"></path><path id="path2" d="M259.863 83.315 C 256.095 86.869,256.994 88.836,266.887 98.681 C 271.349 103.121,276.243 108.012,277.762 109.549 L 280.523 112.344 269.468 123.437 C 257.718 135.225,257.576 135.415,258.168 138.569 C 258.486 140.265,260.653 142.261,262.565 142.620 C 265.298 143.132,266.143 142.482,277.416 131.200 C 283.347 125.264,288.296 120.405,288.413 120.403 C 288.530 120.401,293.387 125.169,299.206 130.999 C 305.026 136.828,310.400 141.888,311.149 142.244 C 313.930 143.564,317.049 142.355,318.484 139.402 C 320.088 136.099,319.802 135.680,307.564 123.391 C 301.644 117.445,296.801 112.405,296.802 112.191 C 296.803 111.976,301.592 107.030,307.445 101.200 C 319.708 88.982,320.070 88.449,318.408 85.018 C 317.385 82.903,315.830 82.000,313.214 82.000 C 310.792 82.000,311.692 81.236,297.775 95.100 C 292.862 99.995,288.696 104.000,288.518 104.000 C 288.340 104.000,283.516 99.308,277.797 93.574 C 272.079 87.839,266.914 82.889,266.320 82.574 C 264.288 81.495,261.447 81.821,259.863 83.315 " stroke="none" fill="#ed1b24" fill-rule="evenodd"></path><path id="path3" d="M310.400 82.200 C 309.122 82.930,309.396 82.934,311.400 82.212 C 312.280 81.895,312.640 81.634,312.200 81.632 C 311.760 81.630,310.950 81.886,310.400 82.200 M271.000 86.800 C 273.412 89.220,275.476 91.200,275.586 91.200 C 275.696 91.200,273.812 89.220,271.400 86.800 C 268.988 84.380,266.924 82.400,266.814 82.400 C 266.704 82.400,268.588 84.380,271.000 86.800 M257.849 85.415 C 257.712 85.773,257.624 86.726,257.653 87.533 C 257.701 88.844,257.738 88.787,257.995 87.000 C 258.303 84.871,258.255 84.358,257.849 85.415 M153.600 90.829 C 150.410 90.998,146.720 91.329,145.400 91.563 C 136.262 93.188,133.027 93.936,127.600 95.680 C 122.736 97.243,121.616 97.702,121.829 98.047 C 121.946 98.236,121.780 98.290,121.459 98.167 C 121.139 98.045,120.106 98.317,119.163 98.772 C 118.221 99.227,117.302 99.600,117.121 99.600 C 116.803 99.600,109.432 103.194,107.800 104.144 C 107.360 104.401,106.100 105.130,105.000 105.765 C 84.629 117.526,66.197 138.903,58.180 160.067 C 57.403 162.120,56.612 164.160,56.423 164.600 C 55.864 165.902,53.986 171.970,53.591 173.752 C 50.805 186.309,50.374 189.950,50.346 201.200 C 50.324 209.936,50.807 217.344,51.585 220.200 C 51.765 220.860,52.130 222.750,52.396 224.400 C 52.662 226.050,53.025 227.760,53.203 228.200 C 53.380 228.640,53.747 229.900,54.016 231.000 C 55.187 235.772,58.305 244.506,58.742 244.236 C 58.884 244.148,59.025 244.498,59.056 245.014 C 59.123 246.126,61.648 251.618,61.994 251.404 C 62.126 251.322,62.260 251.608,62.293 252.038 C 62.360 252.930,67.822 262.643,68.487 263.054 C 68.749 263.216,68.809 263.138,68.637 262.861 C 68.180 262.120,69.605 262.517,71.600 263.687 C 74.686 265.496,80.105 267.935,85.600 269.989 C 90.189 271.704,91.583 272.140,95.848 273.195 C 96.754 273.419,97.969 273.975,98.548 274.430 C 99.656 275.302,99.999 275.230,99.034 274.329 C 96.224 271.704,89.600 265.048,89.600 264.848 C 89.600 264.709,88.880 263.831,88.000 262.897 C 87.120 261.963,86.400 261.019,86.400 260.799 C 86.400 260.580,86.248 260.400,86.061 260.400 C 85.729 260.400,80.000 252.300,80.000 251.830 C 80.000 251.699,79.370 250.695,78.600 249.600 C 77.830 248.505,77.200 247.372,77.200 247.082 C 77.200 246.793,76.660 245.705,76.000 244.664 C 75.340 243.624,74.800 242.640,74.800 242.479 C 74.800 242.079,72.380 236.300,72.003 235.800 C 71.083 234.577,67.874 222.763,67.224 218.200 C 67.004 216.660,66.629 214.410,66.389 213.200 C 65.464 208.521,65.794 193.225,66.962 186.600 C 69.373 172.931,74.062 160.582,80.630 150.600 C 81.932 148.620,83.073 146.820,83.164 146.600 C 83.255 146.380,84.772 144.400,86.536 142.200 C 95.416 131.125,106.791 122.012,119.400 115.875 C 120.280 115.446,121.450 114.870,122.000 114.593 C 122.550 114.317,124.170 113.642,125.600 113.095 C 139.068 107.938,146.380 106.614,161.400 106.612 C 174.366 106.611,181.654 107.681,191.600 111.049 C 193.492 111.689,194.108 111.947,198.545 113.957 C 200.055 114.641,201.537 115.200,201.839 115.200 C 202.141 115.200,203.266 115.740,204.338 116.400 C 205.411 117.060,206.433 117.600,206.609 117.600 C 207.044 117.600,210.966 120.108,211.133 120.493 C 211.207 120.662,211.601 120.800,212.010 120.800 C 212.418 120.800,212.855 120.965,212.980 121.167 C 213.104 121.369,214.324 122.297,215.689 123.229 C 217.054 124.161,218.489 125.301,218.877 125.762 C 219.554 126.566,219.579 126.200,219.491 116.672 L 219.400 106.744 217.000 105.368 C 211.309 102.105,203.733 98.670,203.096 99.064 C 202.861 99.209,202.794 99.133,202.944 98.891 C 203.095 98.646,202.818 98.346,202.306 98.201 C 201.808 98.061,200.500 97.624,199.400 97.232 C 194.586 95.516,193.239 95.080,190.600 94.385 C 189.060 93.979,187.440 93.551,187.000 93.433 C 181.498 91.960,165.568 90.183,160.400 90.466 C 159.850 90.496,156.790 90.660,153.600 90.829 M269.200 101.400 C 275.027 107.230,279.884 112.000,279.994 112.000 C 280.104 112.000,275.427 107.230,269.600 101.400 C 263.773 95.570,258.916 90.800,258.806 90.800 C 258.696 90.800,263.373 95.570,269.200 101.400 M282.095 97.795 L 288.390 104.187 289.295 103.208 L 290.200 102.230 289.283 102.993 L 288.365 103.756 282.083 97.579 L 275.800 91.403 282.095 97.795 M296.800 112.239 C 296.800 112.443,299.365 115.128,302.500 118.205 L 308.200 123.800 302.600 118.014 C 299.520 114.832,296.955 112.147,296.900 112.047 C 296.845 111.948,296.800 112.034,296.800 112.239 M299.200 131.400 C 305.027 137.230,309.884 142.000,309.994 142.000 C 310.104 142.000,305.427 137.230,299.600 131.400 C 293.773 125.570,288.916 120.800,288.806 120.800 C 288.696 120.800,293.373 125.570,299.200 131.400 M219.076 123.500 C 218.975 123.885,218.893 123.570,218.893 122.800 C 218.893 122.030,218.975 121.715,219.076 122.100 C 219.176 122.485,219.176 123.115,219.076 123.500 M308.400 124.110 C 308.400 124.171,309.795 125.566,311.500 127.210 L 314.600 130.200 311.610 127.100 C 308.833 124.221,308.400 123.817,308.400 124.110 M316.000 131.725 C 316.000 131.794,316.585 132.379,317.300 133.025 L 318.600 134.200 317.425 132.900 C 316.330 131.688,316.000 131.416,316.000 131.725 M257.701 137.400 C 257.705 138.280,257.787 138.593,257.883 138.095 C 257.979 137.598,257.975 136.878,257.875 136.495 C 257.775 136.113,257.696 136.520,257.701 137.400 M262.900 143.076 C 263.285 143.176,263.915 143.176,264.300 143.076 C 264.685 142.975,264.370 142.893,263.600 142.893 C 262.830 142.893,262.515 142.975,262.900 143.076 M254.250 181.119 C 254.142 181.295,254.218 181.700,254.420 182.019 C 254.723 182.498,254.789 182.474,254.794 181.884 C 254.800 181.216,255.336 181.176,262.762 181.284 C 267.142 181.348,270.641 181.265,270.539 181.100 C 270.288 180.696,254.500 180.714,254.250 181.119 M271.293 184.800 C 271.293 185.570,271.375 185.885,271.476 185.500 C 271.576 185.115,271.576 184.485,271.476 184.100 C 271.375 183.715,271.293 184.030,271.293 184.800 M272.120 192.800 C 272.120 194.010,272.195 194.505,272.287 193.900 C 272.378 193.295,272.378 192.305,272.287 191.700 C 272.195 191.095,272.120 191.590,272.120 192.800 M256.493 197.200 C 256.493 197.970,256.575 198.285,256.676 197.900 C 256.776 197.515,256.776 196.885,256.676 196.500 C 256.575 196.115,256.493 196.430,256.493 197.200 M272.554 201.600 C 272.554 204.350,272.618 205.475,272.696 204.100 C 272.774 202.725,272.774 200.475,272.696 199.100 C 272.618 197.725,272.554 198.850,272.554 201.600 M256.874 203.116 C 256.808 206.075,256.370 211.252,255.801 215.800 C 255.670 216.849,255.726 217.193,255.962 216.800 C 256.445 215.996,257.317 204.767,257.112 202.000 C 256.977 200.193,256.935 200.392,256.874 203.116 M272.114 210.600 C 272.117 211.700,272.195 212.103,272.287 211.495 C 272.379 210.886,272.377 209.986,272.282 209.495 C 272.187 209.003,272.111 209.500,272.114 210.600 M271.473 214.153 C 271.323 214.545,271.222 215.796,271.249 216.933 L 271.298 219.000 271.648 216.600 C 272.016 214.078,271.935 212.949,271.473 214.153 M255.301 219.000 C 255.305 219.880,255.387 220.193,255.483 219.695 C 255.579 219.198,255.575 218.478,255.475 218.095 C 255.375 217.713,255.296 218.120,255.301 219.000 M270.667 220.267 C 270.520 220.413,270.415 220.998,270.434 221.567 C 270.468 222.581,270.475 222.579,270.821 221.420 C 271.185 220.203,271.131 219.802,270.667 220.267 M253.613 225.955 C 253.116 227.700,252.788 229.363,252.884 229.651 C 252.980 229.939,253.457 228.582,253.945 226.637 C 255.059 222.195,254.822 221.709,253.613 225.955 M269.897 223.600 C 269.740 224.150,269.627 225.230,269.646 226.000 L 269.680 227.400 270.055 225.800 C 270.505 223.877,270.367 221.958,269.897 223.600 M251.093 234.302 C 250.298 236.446,249.350 238.920,248.986 239.800 C 248.623 240.680,248.495 241.220,248.703 241.000 C 248.910 240.780,249.392 239.790,249.773 238.800 C 250.154 237.810,250.704 236.460,250.994 235.800 C 251.733 234.124,252.824 230.691,252.668 230.535 C 252.597 230.463,251.888 232.159,251.093 234.302 M267.996 232.100 C 267.756 233.035,267.299 234.597,266.980 235.571 C 266.059 238.385,266.348 238.453,267.383 235.667 C 268.359 233.037,268.986 230.400,268.634 230.400 C 268.522 230.400,268.235 231.165,267.996 232.100 M265.040 241.240 C 264.455 242.818,264.045 244.178,264.128 244.261 C 264.211 244.345,264.757 243.120,265.340 241.540 C 265.923 239.960,266.334 238.600,266.252 238.519 C 266.170 238.437,265.625 239.662,265.040 241.240 M247.611 242.571 C 247.385 243.167,247.002 244.023,246.760 244.475 C 246.438 245.077,246.439 245.223,246.766 245.021 C 247.304 244.689,248.491 241.957,248.216 241.683 C 248.110 241.576,247.837 241.976,247.611 242.571 M245.449 246.909 C 245.036 247.619,244.344 248.830,243.911 249.600 C 243.479 250.370,242.962 251.171,242.762 251.380 C 242.563 251.589,242.400 252.029,242.400 252.358 C 242.400 252.686,242.850 252.345,243.400 251.600 C 243.950 250.855,244.400 250.096,244.400 249.914 C 244.400 249.733,244.861 248.854,245.424 247.963 C 245.987 247.071,246.392 246.179,246.324 245.980 C 246.256 245.781,245.862 246.199,245.449 246.909 M262.400 247.327 C 262.400 247.617,261.861 248.908,261.202 250.196 C 260.543 251.484,260.070 252.603,260.149 252.683 C 260.291 252.824,262.395 248.879,262.912 247.500 C 263.057 247.115,263.001 246.800,262.787 246.800 C 262.574 246.800,262.400 247.037,262.400 247.327 M240.884 254.306 C 240.381 255.074,240.046 255.780,240.141 255.874 C 240.394 256.127,242.086 253.647,241.931 253.249 C 241.859 253.062,241.388 253.537,240.884 254.306 M259.200 253.920 C 259.200 254.316,259.037 254.811,258.838 255.020 C 258.198 255.691,256.765 258.469,257.196 258.203 C 257.586 257.961,259.034 255.455,259.683 253.900 C 259.843 253.515,259.800 253.200,259.587 253.200 C 259.374 253.200,259.200 253.524,259.200 253.920 M238.544 257.900 C 237.941 258.725,237.030 259.976,236.519 260.680 C 234.568 263.368,227.849 270.399,224.244 273.525 C 223.404 274.253,222.825 274.958,222.958 275.091 C 223.525 275.658,235.992 262.410,238.759 258.300 C 240.276 256.047,240.116 255.749,238.544 257.900 M255.453 260.391 C 254.874 261.267,254.400 262.122,254.400 262.291 C 254.399 262.461,253.994 263.080,253.500 263.666 C 251.426 266.125,251.200 266.423,251.195 266.705 C 251.192 266.867,250.787 267.511,250.295 268.137 C 247.400 271.814,245.353 274.279,244.728 274.841 C 244.336 275.193,244.117 275.584,244.243 275.709 C 244.682 276.149,253.425 264.773,255.778 260.700 C 257.112 258.391,256.906 258.196,255.453 260.391 M70.743 266.518 C 71.440 267.531,72.190 268.470,72.409 268.606 C 72.629 268.741,72.257 268.035,71.583 267.037 C 70.909 266.038,70.159 265.098,69.917 264.949 C 69.675 264.799,70.047 265.505,70.743 266.518 M74.673 271.700 C 76.949 274.653,89.358 287.200,90.003 287.200 C 90.248 287.200,89.583 286.464,88.524 285.565 C 85.572 283.057,78.484 275.759,75.641 272.300 C 72.581 268.578,71.981 268.205,74.673 271.700 M100.000 275.436 C 100.000 275.786,101.738 277.171,102.196 277.187 C 102.414 277.194,102.107 276.750,101.513 276.200 C 100.442 275.207,100.000 274.984,100.000 275.436 M221.772 275.740 C 221.536 275.993,220.726 276.687,219.972 277.281 C 219.217 277.876,218.780 278.363,219.000 278.365 C 219.488 278.367,222.600 275.664,222.367 275.440 C 222.275 275.353,222.007 275.488,221.772 275.740 M104.069 278.700 C 104.801 279.305,105.460 279.935,105.533 280.100 C 105.607 280.265,105.862 280.400,106.102 280.400 C 106.341 280.400,106.867 280.699,107.271 281.064 C 107.675 281.430,108.113 281.620,108.246 281.487 C 108.379 281.355,107.490 280.608,106.270 279.828 C 105.051 279.048,103.940 278.227,103.803 278.005 C 103.665 277.782,103.370 277.600,103.146 277.600 C 102.922 277.600,103.337 278.095,104.069 278.700 M216.322 279.751 C 215.289 280.438,214.434 281.144,214.422 281.319 C 214.405 281.562,217.240 279.849,218.367 278.935 C 219.301 278.178,217.770 278.789,216.322 279.751 M251.400 282.800 C 252.259 283.680,253.052 284.400,253.162 284.400 C 253.272 284.400,252.659 283.680,251.800 282.800 C 250.941 281.920,250.148 281.200,250.038 281.200 C 249.928 281.200,250.541 281.920,251.400 282.800 M108.800 281.875 C 108.800 282.094,109.475 282.616,110.300 283.034 C 111.125 283.451,112.115 284.048,112.500 284.359 C 113.000 284.763,113.200 284.786,113.200 284.442 C 113.200 284.176,112.525 283.680,111.700 283.340 C 110.875 282.999,109.885 282.440,109.500 282.098 C 109.115 281.756,108.800 281.656,108.800 281.875 M212.800 282.200 C 212.526 282.530,212.054 282.800,211.751 282.800 C 211.448 282.800,211.200 282.960,211.200 283.157 C 211.200 283.353,210.750 283.626,210.200 283.764 C 209.650 283.902,209.200 284.195,209.200 284.416 C 209.200 284.873,211.707 283.624,213.200 282.422 C 213.750 281.980,213.997 281.614,213.749 281.609 C 213.501 281.604,213.074 281.870,212.800 282.200 M234.413 285.107 C 233.889 285.683,233.907 285.721,234.582 285.462 C 235.143 285.247,235.733 285.558,236.869 286.667 C 237.711 287.490,238.400 288.073,238.400 287.964 C 238.400 287.002,234.943 284.524,234.413 285.107 M113.600 284.928 C 113.600 285.434,125.912 291.217,126.918 291.184 C 127.448 291.167,124.471 289.600,123.908 289.600 C 123.716 289.600,121.459 288.565,118.893 287.300 C 113.378 284.582,113.600 284.682,113.600 284.928 M206.711 285.760 C 204.387 287.141,204.382 287.406,206.700 286.241 C 207.855 285.661,208.800 285.100,208.800 284.993 C 208.800 284.649,208.229 284.858,206.711 285.760 M232.784 286.619 C 232.502 286.959,230.815 288.322,229.035 289.647 C 227.256 290.972,225.530 292.270,225.200 292.530 C 224.870 292.791,223.565 293.688,222.300 294.523 C 221.035 295.359,220.000 296.127,220.000 296.231 C 220.000 296.412,220.874 295.892,223.406 294.204 C 224.569 293.429,231.147 288.470,233.200 286.821 C 233.750 286.379,233.997 286.014,233.749 286.009 C 233.501 286.004,233.067 286.279,232.784 286.619 M200.600 288.778 C 197.396 290.334,196.711 291.060,199.774 289.653 C 200.668 289.242,202.075 288.604,202.900 288.234 C 204.301 287.607,204.797 287.184,204.100 287.212 C 203.935 287.219,202.360 287.923,200.600 288.778 M91.256 288.366 C 91.775 288.787,92.277 289.055,92.371 288.961 C 92.576 288.757,91.144 287.631,90.656 287.613 C 90.466 287.606,90.736 287.945,91.256 288.366 M92.800 289.325 C 92.800 289.424,93.461 290.009,94.268 290.625 C 95.076 291.241,95.611 291.541,95.456 291.291 C 95.140 290.779,92.800 289.047,92.800 289.325 M194.875 291.073 C 193.926 291.409,193.238 291.771,193.345 291.878 C 193.569 292.102,196.410 291.196,196.980 290.718 C 197.533 290.255,196.874 290.366,194.875 291.073 M127.800 291.462 C 128.020 291.671,130.090 292.424,132.400 293.136 C 134.710 293.847,137.153 294.603,137.828 294.815 C 138.504 295.027,139.314 295.191,139.628 295.181 C 140.259 295.160,139.022 294.729,132.871 292.828 C 130.600 292.127,128.440 291.447,128.071 291.317 C 127.639 291.166,127.543 291.218,127.800 291.462 M96.000 291.797 C 96.000 291.919,97.755 293.155,99.900 294.544 C 104.907 297.786,106.800 298.916,106.800 298.662 C 106.800 298.550,105.675 297.782,104.300 296.956 C 102.925 296.130,100.495 294.581,98.900 293.515 C 97.305 292.448,96.000 291.675,96.000 291.797 M190.475 292.673 C 189.526 293.009,188.838 293.371,188.945 293.478 C 189.169 293.702,192.010 292.796,192.580 292.318 C 193.133 291.855,192.474 291.966,190.475 292.673 M185.400 294.190 L 184.200 294.744 185.600 294.517 C 186.370 294.392,187.270 294.140,187.600 293.957 C 188.659 293.370,186.736 293.573,185.400 294.190 M248.800 298.200 C 251.323 300.730,253.477 302.800,253.587 302.800 C 253.697 302.800,251.723 300.730,249.200 298.200 C 246.677 295.670,244.523 293.600,244.413 293.600 C 244.303 293.600,246.277 295.670,248.800 298.200 M141.600 295.600 C 142.150 295.776,143.140 295.917,143.800 295.913 L 145.000 295.905 143.800 295.600 C 143.140 295.432,142.150 295.291,141.600 295.287 L 140.600 295.280 141.600 295.600 M178.426 295.654 C 175.544 296.132,175.215 296.531,178.007 296.163 C 180.513 295.832,182.712 295.261,181.400 295.281 C 180.960 295.288,179.622 295.456,178.426 295.654 M146.200 296.375 C 148.152 296.966,153.320 297.486,154.400 297.202 C 155.047 297.031,154.129 296.844,151.800 296.670 C 149.820 296.523,147.480 296.315,146.600 296.208 C 145.166 296.033,145.125 296.050,146.200 296.375 M172.532 296.654 C 172.275 296.759,168.315 296.987,163.732 297.161 L 155.400 297.476 162.600 297.513 C 166.920 297.535,171.000 297.340,172.800 297.025 C 174.631 296.705,175.255 296.493,174.400 296.482 C 173.630 296.472,172.789 296.549,172.532 296.654 M310.000 328.200 C 327.269 345.470,341.488 359.600,341.598 359.600 C 341.708 359.600,327.669 345.470,310.400 328.200 C 293.131 310.930,278.912 296.800,278.802 296.800 C 278.692 296.800,292.731 310.930,310.000 328.200 M214.465 299.192 C 212.802 300.120,212.507 300.402,213.460 300.151 C 214.137 299.974,216.462 298.399,216.000 298.432 C 215.890 298.440,215.199 298.781,214.465 299.192 M107.200 298.993 C 107.200 299.100,108.100 299.643,109.200 300.200 C 111.715 301.475,111.821 301.216,109.350 299.834 C 107.427 298.760,107.200 298.671,107.200 298.993 M210.670 301.079 C 210.048 301.405,209.635 301.769,209.753 301.886 C 209.870 302.004,210.559 301.720,211.283 301.257 C 212.778 300.299,212.375 300.183,210.670 301.079 M113.000 302.080 C 115.179 303.231,120.092 305.241,120.275 305.058 C 120.357 304.976,119.474 304.505,118.312 304.010 C 117.150 303.516,115.250 302.682,114.088 302.156 C 111.490 300.980,110.829 300.934,113.000 302.080 M203.800 304.216 C 203.140 304.527,201.970 305.054,201.200 305.387 C 200.377 305.742,200.212 305.895,200.800 305.756 C 202.013 305.470,205.962 303.670,205.400 303.659 C 205.180 303.655,204.460 303.906,203.800 304.216 M197.275 306.673 C 196.326 307.009,195.613 307.347,195.691 307.424 C 195.885 307.618,199.078 306.655,199.440 306.293 C 199.864 305.869,199.236 305.980,197.275 306.673 M126.793 307.602 C 127.999 308.012,129.041 308.292,129.109 308.224 C 129.325 308.009,126.015 306.799,125.292 306.828 C 124.911 306.843,125.587 307.192,126.793 307.602 M130.600 308.800 C 131.040 308.989,131.760 309.144,132.200 309.144 L 133.000 309.144 132.200 308.800 C 131.760 308.611,131.040 308.456,130.600 308.456 L 129.800 308.456 130.600 308.800 M191.000 308.610 C 190.780 308.691,189.817 308.958,188.860 309.205 C 187.902 309.451,187.203 309.737,187.306 309.840 C 187.409 309.942,188.732 309.673,190.247 309.242 C 191.761 308.810,192.640 308.458,192.200 308.460 C 191.760 308.462,191.220 308.529,191.000 308.610 M136.800 310.400 C 137.350 310.576,138.340 310.720,139.000 310.720 C 140.167 310.720,140.172 310.711,139.200 310.400 C 138.650 310.224,137.660 310.080,137.000 310.080 C 135.833 310.080,135.828 310.089,136.800 310.400 M183.400 310.400 C 182.336 310.857,184.003 310.857,185.800 310.400 L 187.000 310.095 185.600 310.075 C 184.830 310.065,183.840 310.211,183.400 310.400 M141.400 311.200 C 142.501 311.673,142.892 311.673,142.600 311.200 C 142.464 310.980,141.958 310.813,141.476 310.828 C 140.631 310.855,140.629 310.869,141.400 311.200 M179.800 311.200 C 178.722 311.474,178.702 311.506,179.600 311.513 C 180.150 311.517,181.050 311.376,181.600 311.200 C 182.944 310.769,181.492 310.769,179.800 311.200 M144.294 311.654 C 144.465 311.825,146.134 312.053,148.003 312.161 C 151.779 312.379,151.319 312.177,146.891 311.673 C 145.291 311.491,144.123 311.483,144.294 311.654 M173.600 312.000 L 171.800 312.280 173.400 312.310 C 174.280 312.327,175.810 312.197,176.800 312.020 L 178.600 311.700 177.000 311.710 C 176.120 311.716,174.590 311.846,173.600 312.000 M156.662 312.920 C 159.288 313.133,163.073 313.136,165.862 312.928 C 170.331 312.594,170.077 312.573,161.400 312.565 C 152.922 312.558,152.550 312.586,156.662 312.920 M257.818 320.818 C 258.908 322.037,259.881 322.976,259.981 322.903 C 260.080 322.831,259.189 321.833,257.999 320.686 L 255.836 318.600 257.818 320.818 M280.800 343.800 C 292.128 355.130,301.487 364.400,301.597 364.400 C 301.707 364.400,292.528 355.130,281.200 343.800 C 269.872 332.470,260.513 323.200,260.403 323.200 C 260.293 323.200,269.472 332.470,280.800 343.800 M310.600 373.600 C 315.436 378.440,319.483 382.400,319.593 382.400 C 319.703 382.400,315.836 378.440,311.000 373.600 C 306.164 368.760,302.117 364.800,302.007 364.800 C 301.897 364.800,305.764 368.760,310.600 373.600 M343.667 375.980 C 343.433 376.651,343.327 377.200,343.431 377.200 C 343.701 377.200,344.456 375.122,344.257 374.924 C 344.167 374.833,343.901 375.308,343.667 375.980 M339.400 381.844 L 337.800 383.276 339.500 382.004 C 340.963 380.910,341.491 380.383,341.100 380.406 C 341.045 380.409,340.280 381.056,339.400 381.844 " stroke="none" fill="#94a8c9" fill-rule="evenodd"></path><path id="path4" d="M151.400 106.645 C 143.525 107.721,135.769 109.440,130.600 111.256 C 127.050 112.503,123.136 114.022,122.000 114.593 C 121.450 114.870,120.280 115.446,119.400 115.875 C 106.791 122.012,95.416 131.125,86.536 142.200 C 84.772 144.400,83.255 146.380,83.164 146.600 C 83.073 146.820,81.932 148.620,80.630 150.600 C 74.062 160.582,69.373 172.931,66.962 186.600 C 65.794 193.225,65.464 208.521,66.389 213.200 C 66.629 214.410,67.004 216.660,67.224 218.200 C 68.500 227.154,72.405 238.237,75.508 241.712 C 82.357 249.383,89.038 252.557,98.400 252.585 C 103.821 252.601,106.676 251.936,111.362 249.566 C 115.695 247.375,112.878 250.056,154.109 208.871 C 194.048 168.977,192.014 171.223,188.800 170.558 C 188.250 170.445,187.487 170.183,187.105 169.976 C 186.723 169.769,186.200 169.600,185.943 169.600 C 184.727 169.600,182.800 167.549,182.800 166.254 C 182.800 164.553,184.710 162.599,186.075 162.904 C 187.398 163.200,192.924 165.247,193.400 165.617 C 195.654 167.371,196.807 166.575,205.863 157.020 C 215.365 146.994,214.055 128.491,203.076 117.663 C 200.454 115.077,199.674 114.509,197.200 113.386 C 196.430 113.036,195.260 112.504,194.600 112.204 C 192.249 111.134,187.070 109.562,183.200 108.744 C 173.983 106.794,173.083 106.699,162.800 106.590 C 157.190 106.530,152.060 106.555,151.400 106.645 M170.316 116.418 C 176.593 117.094,178.400 118.123,178.400 121.023 C 178.400 123.636,176.731 124.902,173.638 124.636 C 159.295 123.403,150.413 124.001,140.200 126.889 C 133.797 128.699,122.153 133.721,121.667 134.882 C 121.593 135.057,121.323 135.203,121.067 135.207 C 118.887 135.241,104.412 147.832,100.193 153.364 C 94.276 161.120,89.713 169.751,87.060 178.200 C 86.039 181.453,84.871 186.069,84.580 188.000 C 84.079 191.332,83.022 192.382,80.154 192.395 C 76.044 192.413,75.784 188.822,79.068 177.400 C 79.637 175.420,80.250 173.440,80.431 173.000 C 80.612 172.560,81.404 170.612,82.190 168.672 C 84.081 164.005,86.523 159.185,88.223 156.767 C 88.980 155.690,89.600 154.709,89.600 154.587 C 89.600 154.350,92.780 149.933,93.191 149.600 C 93.326 149.490,94.264 148.320,95.275 147.000 C 97.437 144.176,103.752 137.883,106.595 135.719 C 107.693 134.883,108.953 133.869,109.395 133.465 C 112.590 130.548,124.569 123.773,130.000 121.813 C 135.225 119.926,137.683 119.206,143.600 117.830 C 150.906 116.131,162.138 115.538,170.316 116.418 M219.781 141.000 C 219.814 151.564,219.958 155.666,220.322 156.400 C 220.810 157.386,220.813 157.383,220.557 156.200 C 220.413 155.540,220.170 148.610,220.016 140.800 L 219.735 126.600 219.781 141.000 M221.022 158.600 C 222.035 163.795,229.321 173.344,233.921 175.507 C 234.792 175.916,234.852 175.916,234.236 175.507 C 228.591 171.761,224.084 165.963,221.404 159.000 C 220.935 157.782,220.844 157.686,221.022 158.600 M138.308 163.421 C 141.437 165.612,140.097 168.431,135.109 170.152 C 132.823 170.941,127.996 172.738,127.000 173.171 C 126.560 173.363,125.570 173.736,124.800 174.000 C 124.030 174.264,123.040 174.624,122.600 174.800 C 122.160 174.976,121.170 175.336,120.400 175.600 C 119.630 175.864,118.640 176.235,118.200 176.424 C 117.760 176.613,115.870 177.328,114.000 178.013 C 112.130 178.698,110.220 179.442,109.754 179.668 C 109.125 179.972,108.592 179.913,107.666 179.434 C 104.184 177.634,105.341 174.121,109.838 172.842 C 110.917 172.535,111.980 172.149,112.200 171.985 C 112.420 171.821,113.410 171.414,114.400 171.081 C 116.660 170.321,119.439 169.270,121.000 168.587 C 121.660 168.298,122.740 167.933,123.400 167.776 C 124.060 167.618,124.780 167.354,125.000 167.188 C 125.220 167.023,126.210 166.609,127.200 166.270 C 130.936 164.989,135.746 163.187,135.936 162.997 C 136.322 162.611,137.436 162.810,138.308 163.421 M247.700 180.676 C 248.085 180.776,248.715 180.776,249.100 180.676 C 249.485 180.575,249.170 180.493,248.400 180.493 C 247.630 180.493,247.315 180.575,247.700 180.676 M251.900 181.082 C 252.395 181.178,253.205 181.178,253.700 181.082 C 254.195 180.987,253.790 180.909,252.800 180.909 C 251.810 180.909,251.405 180.987,251.900 181.082 M131.062 188.196 C 137.306 190.996,139.729 198.711,136.145 204.376 C 132.041 210.860,122.956 211.784,118.066 206.215 C 109.832 196.836,119.730 183.114,131.062 188.196 M82.034 200.824 C 82.907 201.446,83.198 201.974,83.194 202.927 C 83.191 203.627,83.489 206.788,83.858 209.951 C 84.734 217.480,84.185 218.807,80.200 218.781 C 77.301 218.762,76.540 217.047,75.916 209.132 C 75.227 200.380,77.353 197.491,82.034 200.824 " stroke="none" fill="#96dfff" fill-rule="evenodd"></path><path id="path5" d="M154.691 90.689 C 155.401 90.777,156.661 90.779,157.491 90.692 C 158.321 90.605,157.740 90.533,156.200 90.531 C 154.660 90.529,153.981 90.600,154.691 90.689 M169.600 90.813 C 172.790 91.012,176.750 91.434,178.400 91.751 C 183.601 92.752,184.400 92.847,184.400 92.466 C 184.400 92.263,183.365 91.992,182.100 91.865 C 180.835 91.738,178.900 91.453,177.800 91.231 C 176.700 91.009,173.100 90.743,169.800 90.639 L 163.800 90.451 169.600 90.813 M133.800 93.600 C 133.296 93.817,133.222 93.944,133.600 93.944 C 133.930 93.944,134.560 93.789,135.000 93.600 C 135.504 93.383,135.578 93.256,135.200 93.256 C 134.870 93.256,134.240 93.411,133.800 93.600 M199.400 97.171 C 200.280 97.594,201.270 97.947,201.600 97.955 C 202.286 97.971,200.239 97.027,198.774 96.651 C 198.238 96.514,198.520 96.748,199.400 97.171 M119.600 98.200 C 118.294 98.947,118.751 98.955,120.454 98.216 C 121.194 97.894,121.530 97.631,121.200 97.630 C 120.870 97.629,120.150 97.886,119.600 98.200 M204.400 99.065 C 206.603 100.157,208.930 101.200,209.164 101.200 C 209.657 101.200,207.667 100.083,206.000 99.424 C 203.426 98.406,202.778 98.261,204.400 99.065 M110.700 102.229 C 109.205 103.040,109.296 103.378,110.800 102.600 C 111.460 102.259,112.000 101.894,112.000 101.790 C 112.000 101.532,111.957 101.547,110.700 102.229 M214.000 103.620 C 215.387 104.561,216.178 104.835,215.200 104.036 C 214.650 103.586,214.020 103.217,213.800 103.215 C 213.580 103.213,213.670 103.396,214.000 103.620 M216.800 105.220 C 218.187 106.161,218.978 106.435,218.000 105.636 C 217.450 105.186,216.820 104.817,216.600 104.815 C 216.380 104.813,216.470 104.996,216.800 105.220 M103.500 106.229 C 102.005 107.040,102.096 107.378,103.600 106.600 C 104.260 106.259,104.800 105.894,104.800 105.790 C 104.800 105.532,104.757 105.547,103.500 106.229 M219.513 116.673 C 219.576 122.301,219.705 126.829,219.800 126.733 C 220.126 126.407,220.055 107.095,219.727 106.767 C 219.547 106.586,219.451 111.044,219.513 116.673 M94.200 112.650 C 93.481 113.262,93.334 113.505,93.833 113.257 C 94.566 112.893,95.941 111.576,95.549 111.614 C 95.467 111.622,94.860 112.088,94.200 112.650 M89.765 116.231 L 87.400 118.463 89.900 116.342 C 91.275 115.176,92.400 114.172,92.400 114.111 C 92.400 113.808,91.944 114.175,89.765 116.231 M153.600 116.276 C 149.585 116.581,145.712 117.280,139.200 118.876 C 137.367 119.325,133.247 120.640,130.000 121.813 C 124.569 123.773,112.590 130.548,109.395 133.465 C 108.953 133.869,107.693 134.883,106.595 135.719 C 103.752 137.883,97.437 144.176,95.275 147.000 C 94.264 148.320,93.326 149.490,93.191 149.600 C 92.780 149.933,89.600 154.350,89.600 154.587 C 89.600 154.709,88.980 155.690,88.223 156.767 C 86.523 159.185,84.081 164.005,82.190 168.672 C 81.404 170.612,80.612 172.560,80.431 173.000 C 80.250 173.440,79.637 175.420,79.068 177.400 C 75.784 188.822,76.044 192.413,80.154 192.395 C 83.022 192.382,84.079 191.332,84.580 188.000 C 86.209 177.175,92.245 163.783,100.193 153.364 C 104.412 147.832,118.887 135.241,121.067 135.207 C 121.323 135.203,121.593 135.057,121.667 134.882 C 121.740 134.707,123.420 133.736,125.400 132.724 C 133.844 128.409,141.677 125.952,152.021 124.375 C 154.926 123.932,167.168 124.080,173.638 124.636 C 178.908 125.089,180.480 118.830,175.494 117.247 C 172.326 116.242,160.793 115.730,153.600 116.276 M81.949 123.300 C 77.169 128.128,73.898 131.913,71.183 135.760 C 70.422 136.837,69.344 138.367,68.786 139.160 C 67.194 141.423,65.912 143.600,66.172 143.600 C 66.303 143.600,67.067 142.565,67.869 141.300 C 72.207 134.464,77.691 127.996,87.032 118.700 C 87.198 118.535,87.213 118.400,87.067 118.400 C 86.920 118.400,84.617 120.605,81.949 123.300 M220.087 139.800 C 220.065 146.840,220.171 153.302,220.323 154.161 C 220.584 155.633,220.516 130.761,220.252 128.200 C 220.184 127.540,220.110 132.760,220.087 139.800 M63.296 148.500 C 62.703 149.239,60.725 153.258,60.879 153.412 C 60.951 153.485,61.658 152.297,62.449 150.772 C 63.887 148.000,64.050 147.561,63.296 148.500 M220.800 156.591 C 220.800 157.437,222.662 162.268,223.388 163.304 C 224.233 164.511,224.155 163.872,223.237 162.072 C 222.817 161.249,222.174 159.546,221.808 158.288 C 221.152 156.030,220.800 155.438,220.800 156.591 M56.640 163.063 C 56.283 164.111,56.148 164.796,56.341 164.585 C 56.785 164.096,57.655 161.522,57.447 161.313 C 57.361 161.227,56.998 162.014,56.640 163.063 M224.000 164.628 C 224.000 166.634,232.808 175.250,235.868 176.237 C 236.271 176.367,235.705 175.927,234.612 175.259 C 232.014 173.674,227.609 169.352,225.776 166.591 C 224.413 164.537,224.000 164.081,224.000 164.628 M53.000 174.800 C 52.850 175.273,52.817 175.750,52.927 175.860 C 53.037 175.970,53.250 175.673,53.400 175.200 C 53.550 174.727,53.583 174.250,53.473 174.140 C 53.363 174.030,53.150 174.327,53.000 174.800 M240.000 178.134 C 240.000 178.237,240.581 178.524,241.291 178.772 C 242.001 179.019,242.406 179.057,242.191 178.856 C 241.735 178.429,240.000 177.858,240.000 178.134 M250.900 180.691 C 251.725 180.778,253.075 180.778,253.900 180.691 C 254.725 180.605,254.050 180.534,252.400 180.534 C 250.750 180.534,250.075 180.605,250.900 180.691 M263.000 180.695 C 269.188 180.794,270.270 180.905,270.700 181.482 C 271.242 182.209,271.342 182.035,270.957 181.033 C 270.746 180.482,269.742 180.412,263.257 180.490 L 255.800 180.580 263.000 180.695 M50.493 189.200 C 50.493 189.970,50.575 190.285,50.676 189.900 C 50.776 189.515,50.776 188.885,50.676 188.500 C 50.575 188.115,50.493 188.430,50.493 189.200 M50.144 196.800 C 50.144 198.890,50.212 199.745,50.294 198.700 C 50.376 197.655,50.376 195.945,50.294 194.900 C 50.212 193.855,50.144 194.710,50.144 196.800 M77.740 200.055 C 75.706 201.076,75.401 202.593,75.916 209.132 C 76.540 217.047,77.301 218.762,80.200 218.781 C 84.185 218.807,84.734 217.480,83.858 209.951 C 83.489 206.788,83.191 203.627,83.194 202.927 C 83.204 200.807,79.807 199.018,77.740 200.055 M50.140 206.800 C 50.140 208.670,50.209 209.435,50.293 208.500 C 50.377 207.565,50.377 206.035,50.293 205.100 C 50.209 204.165,50.140 204.930,50.140 206.800 M50.501 214.200 C 50.505 215.080,50.587 215.393,50.683 214.895 C 50.779 214.398,50.775 213.678,50.675 213.295 C 50.575 212.913,50.496 213.320,50.501 214.200 M51.268 220.000 C 51.288 221.039,51.918 222.746,51.932 221.800 C 51.938 221.360,51.789 220.640,51.600 220.200 C 51.389 219.710,51.261 219.632,51.268 220.000 M53.668 230.800 C 53.688 231.839,54.318 233.546,54.332 232.600 C 54.338 232.160,54.189 231.440,54.000 231.000 C 53.789 230.510,53.661 230.432,53.668 230.800 M55.448 237.100 C 55.592 237.705,55.967 238.650,56.281 239.200 C 56.634 239.819,56.749 239.896,56.582 239.400 C 56.434 238.960,56.144 238.015,55.938 237.300 C 55.482 235.722,55.079 235.558,55.448 237.100 M260.181 252.837 C 259.829 253.518,259.612 254.145,259.699 254.232 C 259.786 254.319,260.156 253.762,260.522 252.995 C 261.344 251.270,261.059 251.138,260.181 252.837 M64.349 257.000 C 64.565 257.440,65.034 258.160,65.393 258.600 L 66.044 259.400 65.651 258.600 C 65.435 258.160,64.966 257.440,64.607 257.000 L 63.956 256.200 64.349 257.000 M68.800 264.200 C 69.481 265.190,70.128 266.000,70.238 266.000 C 70.348 266.000,69.881 265.190,69.200 264.200 C 68.519 263.210,67.872 262.400,67.762 262.400 C 67.652 262.400,68.119 263.210,68.800 264.200 M252.575 265.468 C 251.959 266.276,251.659 266.811,251.909 266.656 C 252.421 266.340,254.153 264.000,253.875 264.000 C 253.776 264.000,253.191 264.661,252.575 265.468 M72.400 269.200 C 73.097 270.080,73.757 270.800,73.867 270.800 C 73.977 270.800,73.497 270.080,72.800 269.200 C 72.103 268.320,71.443 267.600,71.333 267.600 C 71.223 267.600,71.703 268.320,72.400 269.200 M77.898 275.800 C 79.022 277.120,81.524 279.730,83.458 281.600 C 86.247 284.296,85.990 283.965,82.216 280.000 C 75.943 273.409,75.478 272.957,77.898 275.800 M247.983 279.300 C 248.964 280.345,249.819 281.200,249.883 281.200 C 250.184 281.200,249.866 280.841,248.100 279.183 L 246.200 277.400 247.983 279.300 M257.600 289.000 C 260.123 291.530,262.277 293.600,262.387 293.600 C 262.497 293.600,260.523 291.530,258.000 289.000 C 255.477 286.470,253.323 284.400,253.213 284.400 C 253.103 284.400,255.077 286.470,257.600 289.000 M88.600 286.400 C 89.459 287.280,90.252 288.000,90.362 288.000 C 90.472 288.000,89.859 287.280,89.000 286.400 C 88.141 285.520,87.348 284.800,87.238 284.800 C 87.128 284.800,87.741 285.520,88.600 286.400 M231.200 288.454 L 229.400 290.085 231.094 288.813 C 232.568 287.707,233.514 286.774,233.124 286.812 C 233.056 286.819,232.190 287.558,231.200 288.454 M90.944 288.309 C 91.260 288.821,93.600 290.553,93.600 290.275 C 93.600 290.176,92.939 289.591,92.132 288.975 C 91.324 288.359,90.789 288.059,90.944 288.309 M239.600 289.400 C 240.346 290.170,241.047 290.800,241.157 290.800 C 241.267 290.800,240.746 290.170,240.000 289.400 C 239.254 288.630,238.553 288.000,238.443 288.000 C 238.333 288.000,238.854 288.630,239.600 289.400 M94.144 290.709 C 94.460 291.221,96.800 292.953,96.800 292.675 C 96.800 292.576,96.139 291.991,95.332 291.375 C 94.524 290.759,93.989 290.459,94.144 290.709 M243.600 293.325 C 243.600 293.394,244.185 293.979,244.900 294.625 L 246.200 295.800 245.025 294.500 C 243.930 293.288,243.600 293.016,243.600 293.325 M220.296 296.150 C 218.375 297.331,217.838 297.889,219.400 297.081 C 220.654 296.433,222.345 295.226,222.000 295.225 C 221.890 295.225,221.123 295.641,220.296 296.150 M249.800 299.600 C 251.771 301.580,253.473 303.200,253.583 303.200 C 253.693 303.200,252.171 301.580,250.200 299.600 C 248.229 297.620,246.527 296.000,246.417 296.000 C 246.307 296.000,247.829 297.620,249.800 299.600 M283.200 301.000 C 283.946 301.770,284.647 302.400,284.757 302.400 C 284.867 302.400,284.346 301.770,283.600 301.000 C 282.854 300.230,282.153 299.600,282.043 299.600 C 281.933 299.600,282.454 300.230,283.200 301.000 M200.100 306.012 C 198.761 306.551,199.011 306.824,200.400 306.340 C 201.060 306.110,201.600 305.849,201.600 305.761 C 201.600 305.524,201.113 305.605,200.100 306.012 M290.800 308.600 C 291.546 309.370,292.247 310.000,292.357 310.000 C 292.467 310.000,291.946 309.370,291.200 308.600 C 290.454 307.830,289.753 307.200,289.643 307.200 C 289.533 307.200,290.054 307.830,290.800 308.600 M138.433 310.944 C 138.525 311.024,139.410 311.196,140.400 311.327 C 141.602 311.486,141.934 311.447,141.400 311.210 C 140.636 310.872,138.086 310.643,138.433 310.944 M294.800 312.600 C 295.546 313.370,296.247 314.000,296.357 314.000 C 296.467 314.000,295.946 313.370,295.200 312.600 C 294.454 311.830,293.753 311.200,293.643 311.200 C 293.533 311.200,294.054 311.830,294.800 312.600 M149.305 312.687 C 149.914 312.779,150.814 312.777,151.305 312.682 C 151.797 312.587,151.300 312.511,150.200 312.514 C 149.100 312.517,148.697 312.595,149.305 312.687 M171.300 312.687 C 171.905 312.778,172.895 312.778,173.500 312.687 C 174.105 312.595,173.610 312.520,172.400 312.520 C 171.190 312.520,170.695 312.595,171.300 312.687 M155.105 313.083 C 155.602 313.179,156.322 313.175,156.705 313.075 C 157.087 312.975,156.680 312.896,155.800 312.901 C 154.920 312.905,154.607 312.987,155.105 313.083 M165.900 313.082 C 166.395 313.178,167.205 313.178,167.700 313.082 C 168.195 312.987,167.790 312.909,166.800 312.909 C 165.810 312.909,165.405 312.987,165.900 313.082 M289.200 352.600 C 305.369 368.770,318.688 382.000,318.798 382.000 C 318.908 382.000,305.769 368.770,289.600 352.600 C 273.431 336.430,260.112 323.200,260.002 323.200 C 259.892 323.200,273.031 336.430,289.200 352.600 M321.400 339.200 C 327.557 345.360,332.685 350.400,332.795 350.400 C 332.905 350.400,327.957 345.360,321.800 339.200 C 315.643 333.040,310.515 328.000,310.405 328.000 C 310.295 328.000,315.243 333.040,321.400 339.200 M338.200 356.000 C 339.283 357.100,340.260 358.000,340.370 358.000 C 340.480 358.000,339.683 357.100,338.600 356.000 C 337.517 354.900,336.540 354.000,336.430 354.000 C 336.320 354.000,337.117 354.900,338.200 356.000 M345.331 369.800 C 345.333 371.340,345.405 371.921,345.492 371.091 C 345.579 370.261,345.577 369.001,345.489 368.291 C 345.400 367.581,345.329 368.260,345.331 369.800 M341.999 379.300 C 341.410 380.104,341.313 380.384,341.745 380.033 C 342.401 379.500,343.393 378.000,343.089 378.000 C 343.013 378.000,342.522 378.585,341.999 379.300 M327.105 385.883 C 327.602 385.979,328.322 385.975,328.705 385.875 C 329.087 385.775,328.680 385.696,327.800 385.701 C 326.920 385.705,326.607 385.787,327.105 385.883 M330.100 385.876 C 330.485 385.976,331.115 385.976,331.500 385.876 C 331.885 385.775,331.570 385.693,330.800 385.693 C 330.030 385.693,329.715 385.775,330.100 385.876 " stroke="none" fill="#c9f1ff" fill-rule="evenodd"></path><path id="path6" d="M308.181 84.500 L 306.600 86.200 308.300 84.619 C 309.235 83.749,310.000 82.984,310.000 82.919 C 310.000 82.616,309.652 82.919,308.181 84.500 M314.800 93.800 C 313.828 94.790,313.123 95.600,313.233 95.600 C 313.343 95.600,314.228 94.790,315.200 93.800 C 316.172 92.810,316.877 92.000,316.767 92.000 C 316.657 92.000,315.772 92.810,314.800 93.800 M306.395 102.300 L 300.200 108.600 306.500 102.405 C 309.965 98.998,312.800 96.163,312.800 96.105 C 312.800 95.819,312.151 96.447,306.395 102.300 M292.575 100.100 L 291.400 101.400 292.700 100.225 C 293.415 99.579,294.000 98.994,294.000 98.925 C 294.000 98.616,293.670 98.888,292.575 100.100 M298.181 110.500 L 296.600 112.200 298.300 110.619 C 299.881 109.148,300.184 108.800,299.881 108.800 C 299.816 108.800,299.051 109.565,298.181 110.500 M218.893 122.800 C 218.893 123.570,218.975 123.885,219.076 123.500 C 219.176 123.115,219.176 122.485,219.076 122.100 C 218.975 121.715,218.893 122.030,218.893 122.800 M284.587 124.100 L 282.200 126.600 284.700 124.213 C 286.075 122.899,287.200 121.774,287.200 121.713 C 287.200 121.417,286.805 121.778,284.587 124.100 M280.000 128.600 C 279.028 129.590,278.323 130.400,278.433 130.400 C 278.543 130.400,279.428 129.590,280.400 128.600 C 281.372 127.610,282.077 126.800,281.967 126.800 C 281.857 126.800,280.972 127.610,280.000 128.600 M263.775 128.900 L 262.600 130.200 263.900 129.025 C 264.615 128.379,265.200 127.794,265.200 127.725 C 265.200 127.416,264.870 127.688,263.775 128.900 M275.586 133.100 L 273.400 135.400 275.700 133.214 C 277.837 131.182,278.183 130.800,277.886 130.800 C 277.824 130.800,276.789 131.835,275.586 133.100 M270.189 138.500 L 267.400 141.400 270.300 138.611 C 271.895 137.077,273.200 135.772,273.200 135.711 C 273.200 135.417,272.780 135.806,270.189 138.500 M254.947 182.900 C 257.313 198.874,257.752 213.526,255.964 216.867 C 255.764 217.241,255.600 218.054,255.599 218.674 C 255.598 221.120,252.478 232.491,250.764 236.296 C 250.344 237.228,250.000 238.078,250.000 238.184 C 250.000 238.290,249.550 239.361,248.999 240.565 C 248.449 241.768,247.819 243.168,247.600 243.676 C 247.381 244.184,247.049 244.870,246.863 245.200 C 246.339 246.129,245.553 247.629,244.560 249.600 C 244.061 250.590,243.281 251.797,242.827 252.283 C 242.372 252.769,242.000 253.270,242.000 253.396 C 242.000 253.822,237.479 260.181,235.457 262.600 C 231.696 267.097,220.508 277.846,219.053 278.360 C 218.804 278.448,218.510 278.639,218.400 278.785 C 217.579 279.871,206.945 286.331,202.796 288.264 C 199.840 289.641,196.747 290.931,194.800 291.600 C 194.030 291.864,193.040 292.226,192.600 292.404 C 190.692 293.175,190.075 293.358,184.600 294.770 C 172.575 297.873,157.069 298.515,145.800 296.377 C 137.508 294.804,132.542 293.486,127.800 291.599 C 127.360 291.424,126.370 291.054,125.600 290.778 C 123.251 289.934,114.276 285.577,113.000 284.661 C 112.340 284.187,111.125 283.457,110.300 283.037 C 109.475 282.617,108.800 282.143,108.800 281.984 C 108.800 281.824,108.485 281.588,108.100 281.458 C 107.284 281.184,106.078 280.425,105.256 279.668 C 104.938 279.375,103.670 278.393,102.439 277.485 C 101.208 276.578,99.840 275.497,99.400 275.084 C 98.309 274.059,96.871 273.351,95.200 273.015 C 93.913 272.757,92.642 272.405,90.000 271.574 C 89.013 271.264,82.953 269.023,81.400 268.394 C 79.177 267.494,73.184 264.616,71.600 263.687 C 69.548 262.484,68.197 262.125,68.635 262.899 C 70.492 266.175,77.676 274.882,82.597 279.820 C 88.551 285.795,89.737 286.832,95.877 291.437 C 97.834 292.904,105.706 297.926,107.785 299.034 C 110.356 300.404,112.816 301.628,114.400 302.326 C 120.521 305.025,124.926 306.801,125.518 306.809 C 125.893 306.814,126.985 307.174,127.944 307.609 C 128.903 308.044,129.978 308.400,130.332 308.400 C 130.687 308.400,132.153 308.746,133.589 309.169 C 135.025 309.592,137.550 310.161,139.200 310.433 C 140.850 310.706,142.380 311.054,142.600 311.208 C 142.820 311.362,143.810 311.512,144.800 311.542 C 145.790 311.571,148.040 311.793,149.800 312.035 C 157.623 313.108,175.286 312.350,182.561 310.630 C 183.903 310.313,185.540 309.964,186.200 309.854 C 188.796 309.424,193.056 308.282,194.090 307.739 C 194.690 307.424,195.320 307.173,195.490 307.181 C 197.482 307.276,214.400 299.763,218.056 297.160 C 218.643 296.742,219.225 296.400,219.349 296.400 C 219.565 296.400,223.924 293.512,225.192 292.528 C 225.526 292.269,227.240 290.978,229.000 289.660 C 230.760 288.342,232.854 286.640,233.653 285.877 L 235.106 284.491 236.446 285.745 L 237.786 287.000 236.393 285.460 L 235.000 283.920 236.993 282.260 C 238.089 281.347,240.111 279.540,241.485 278.244 C 243.700 276.156,244.064 275.949,244.692 276.422 C 245.362 276.928,245.363 276.916,244.717 276.210 C 244.074 275.506,244.075 275.428,244.738 274.832 C 245.355 274.278,247.412 271.799,250.295 268.137 C 250.787 267.511,251.192 266.867,251.195 266.705 C 251.200 266.423,251.426 266.125,253.500 263.666 C 253.994 263.080,254.399 262.455,254.400 262.278 C 254.400 262.101,255.120 260.896,256.000 259.600 C 256.880 258.304,257.604 257.099,257.609 256.922 C 257.614 256.745,257.970 256.150,258.400 255.600 C 258.830 255.050,259.186 254.300,259.191 253.933 C 259.196 253.567,259.342 253.207,259.514 253.133 C 259.920 252.961,262.400 247.942,262.400 247.293 C 262.400 247.022,262.580 246.800,262.800 246.800 C 263.020 246.800,263.200 246.528,263.200 246.195 C 263.200 245.862,263.376 245.277,263.591 244.895 C 264.660 242.999,268.196 232.334,268.697 229.495 C 268.804 228.887,269.051 228.292,269.246 228.171 C 269.441 228.051,269.600 227.246,269.600 226.382 C 269.600 224.801,270.224 221.683,270.838 220.200 C 271.020 219.760,271.255 218.230,271.360 216.800 C 271.465 215.370,271.757 212.490,272.010 210.400 C 272.816 203.729,271.808 183.554,270.568 181.549 C 270.450 181.357,266.830 181.200,262.524 181.200 L 254.695 181.200 254.947 182.900 M247.983 279.700 C 248.964 280.745,249.819 281.600,249.883 281.600 C 250.184 281.600,249.866 281.241,248.100 279.583 L 246.200 277.800 247.983 279.700 M255.200 286.910 C 255.200 286.971,256.595 288.366,258.300 290.010 L 261.400 293.000 258.410 289.900 C 255.633 287.021,255.200 286.617,255.200 286.910 M242.383 291.700 C 243.364 292.745,244.219 293.600,244.283 293.600 C 244.584 293.600,244.266 293.241,242.500 291.583 L 240.600 289.800 242.383 291.700 M267.905 293.483 C 268.402 293.579,269.122 293.575,269.505 293.475 C 269.887 293.375,269.480 293.296,268.600 293.301 C 267.720 293.305,267.407 293.387,267.905 293.483 M272.000 294.000 C 273.368 294.438,274.419 294.438,273.400 294.000 C 272.960 293.811,272.240 293.662,271.800 293.668 C 271.157 293.677,271.196 293.743,272.000 294.000 M281.400 300.000 C 283.150 301.760,284.671 303.200,284.781 303.200 C 284.891 303.200,283.550 301.760,281.800 300.000 C 280.050 298.240,278.529 296.800,278.419 296.800 C 278.309 296.800,279.650 298.240,281.400 300.000 M313.600 332.200 C 329.109 347.710,341.888 360.400,341.998 360.400 C 342.108 360.400,329.509 347.710,314.000 332.200 C 298.491 316.690,285.712 304.000,285.602 304.000 C 285.492 304.000,298.091 316.690,313.600 332.200 M252.901 309.000 C 252.905 309.880,252.987 310.193,253.083 309.695 C 253.179 309.198,253.175 308.478,253.075 308.095 C 252.975 307.713,252.896 308.120,252.901 309.000 M263.400 326.000 C 264.706 327.320,265.865 328.400,265.975 328.400 C 266.085 328.400,265.106 327.320,263.800 326.000 C 262.494 324.680,261.335 323.600,261.225 323.600 C 261.115 323.600,262.094 324.680,263.400 326.000 M274.800 337.400 C 275.546 338.170,276.247 338.800,276.357 338.800 C 276.467 338.800,275.946 338.170,275.200 337.400 C 274.454 336.630,273.753 336.000,273.643 336.000 C 273.533 336.000,274.054 336.630,274.800 337.400 M306.800 369.400 C 307.546 370.170,308.247 370.800,308.357 370.800 C 308.467 370.800,307.946 370.170,307.200 369.400 C 306.454 368.630,305.753 368.000,305.643 368.000 C 305.533 368.000,306.054 368.630,306.800 369.400 M344.867 369.600 C 344.824 370.590,344.696 371.850,344.583 372.400 L 344.377 373.400 344.807 372.415 C 345.044 371.874,345.171 370.614,345.091 369.615 L 344.944 367.800 344.867 369.600 " stroke="none" fill="#8798ba" fill-rule="evenodd"></path><path id="path7" d="M242.378 277.441 C 241.620 278.233,239.695 279.955,238.100 281.267 C 236.505 282.578,235.200 283.789,235.200 283.956 C 235.200 284.186,249.417 298.504,253.478 302.365 C 253.886 302.752,253.990 303.316,253.812 304.165 C 252.673 309.571,253.426 314.645,255.847 317.875 C 257.526 320.115,319.134 381.517,320.901 382.711 C 322.494 383.788,325.330 384.822,328.285 385.404 C 331.433 386.024,338.068 383.192,340.956 379.996 C 345.259 375.233,345.942 366.679,342.439 361.437 C 341.805 360.489,293.301 311.695,280.800 299.430 C 275.491 294.221,269.892 292.402,264.314 294.073 L 262.734 294.546 253.570 285.273 C 243.277 274.858,244.219 275.517,242.378 277.441 " stroke="none" fill="#5f6877" fill-rule="evenodd"></path><path id="path8" d="M133.000 164.581 C 131.240 165.288,129.440 165.998,129.000 166.158 C 128.560 166.319,127.300 166.786,126.200 167.196 C 125.100 167.606,122.400 168.604,120.200 169.414 C 116.522 170.767,114.642 171.478,108.955 173.663 C 106.672 174.540,105.753 175.763,106.160 177.383 C 106.684 179.470,109.338 179.628,113.383 177.812 C 114.052 177.512,117.120 176.338,120.200 175.203 C 123.280 174.069,127.600 172.458,129.800 171.625 C 132.000 170.791,134.692 169.785,135.783 169.389 C 139.895 167.899,140.780 165.292,137.726 163.665 C 136.632 163.083,136.819 163.047,133.000 164.581 M184.254 164.029 C 181.610 166.109,182.950 168.088,188.319 170.033 C 190.013 170.647,193.290 171.884,195.600 172.783 C 214.232 180.030,215.886 180.387,216.652 177.335 C 217.171 175.267,216.099 174.384,210.532 172.297 C 204.081 169.880,202.450 169.278,197.000 167.305 C 194.580 166.429,191.103 165.147,189.273 164.456 C 185.326 162.966,185.578 162.988,184.254 164.029 M194.000 187.564 C 181.049 190.296,183.149 209.364,196.403 209.385 C 209.984 209.406,210.916 188.925,197.400 187.482 C 196.300 187.365,194.770 187.402,194.000 187.564 M121.709 188.522 C 111.329 193.957,114.698 209.200,126.279 209.200 C 138.139 209.200,141.583 193.783,130.916 188.443 C 128.538 187.252,124.060 187.291,121.709 188.522 M152.588 235.376 C 151.320 236.644,151.432 238.526,152.846 239.700 C 153.875 240.555,167.582 240.756,169.367 239.942 C 171.198 239.108,171.407 235.714,169.672 234.980 C 169.302 234.823,165.550 234.606,161.333 234.497 L 153.666 234.298 152.588 235.376 " stroke="none" fill="#3190bc" fill-rule="evenodd"></path></g></svg>