<svg id="svg" xmlns="http://www.w3.org/2000/svg" xmlns:xlink="http://www.w3.org/1999/xlink" width="400" height="401.2244897959184" viewBox="0, 0, 400,401.2244897959184"><g id="svgg"><path id="path0" d="M135.102 0.649 C 134.316 0.738,131.674 1.005,129.231 1.241 C 66.801 7.272,13.650 56.552,2.464 118.776 C -6.685 169.665,10.309 218.540,49.776 254.842 C 89.817 291.673,157.477 299.086,211.804 272.594 L 219.322 268.928 282.212 331.752 C 351.083 400.550,349.128 398.735,356.351 400.626 C 365.118 402.921,372.596 399.321,385.128 386.771 C 399.505 372.373,402.862 363.614,397.993 353.209 C 395.722 348.356,394.369 346.947,330.994 283.469 L 268.240 220.612 270.287 217.143 C 289.551 184.490,294.616 141.758,283.664 104.302 C 268.437 52.231,224.632 12.622,171.429 2.819 C 161.588 1.006,142.147 -0.156,135.102 0.649 M157.959 50.242 C 234.057 61.016,266.008 154.239,212.681 209.903 C 167.797 256.754,89.243 245.203,59.872 187.434 C 24.952 118.751,81.657 39.439,157.959 50.242 " stroke="none" fill="#000000" fill-rule="evenodd"></path></g></svg>